<svg width="308" height="126" viewBox="0 0 308 126" fill="none" xmlns="http://www.w3.org/2000/svg">
<g clip-path="url(#clip0_1183_59975)">
<g clip-path="url(#clip1_1183_59975)">
<path d="M30.3746 49.6289H0L29.3088 104.594H44.7625V76.8448L30.3746 49.6289Z" fill="#15322D"/>
<path d="M111.373 7.47101H80.9986L29.3086 104.594H59.6832L111.373 7.47101Z" fill="url(#paint0_linear_1183_59975)"/>
</g>
<path d="M157.357 83.0201C157.128 85.9434 157.787 88.8678 159.248 91.409C160.709 93.9502 162.903 95.9892 165.543 97.2581C172.94 100.743 179.475 98.8157 185.535 93.375L189.077 97.4037C188.999 97.7679 189.015 97.9977 188.909 98.1097C183.001 104.464 171.967 106.543 163.842 102.856C155.248 98.9334 150.62 90.6406 151.532 80.7396C152.344 71.9425 158.806 64.6302 167.664 62.501C173.033 61.2083 178.694 62.0585 183.449 64.8716C188.204 67.6848 191.679 72.2402 193.139 77.5738C194.219 81.4961 193.111 82.9977 189.027 83.0089C179.515 83.0089 170.003 83.0089 160.491 83.0089L157.357 83.0201ZM186.766 77.6578C184.992 71.6063 178.58 67.4206 171.955 67.684C165.7 67.9417 159.646 72.3796 158.527 77.6466L186.766 77.6578Z" fill="black"/>
<path d="M273.818 125.644L280.096 111.586C281.35 108.784 282.508 105.915 283.907 103.181C284.841 101.348 284.807 99.8188 283.907 97.9305C278.776 87.1554 273.779 76.3187 268.743 65.4932C268.475 64.9328 268.267 64.2079 268.016 63.5971C272.772 63.5971 273.6 62.7588 275.698 67.2974C279.428 75.3288 283.159 83.3601 286.889 91.3915C287.275 92.2263 287.734 93.0276 288.411 94.3276C290.649 89.3575 292.674 84.802 294.694 80.2522C296.546 76.0777 298.365 71.8865 300.217 67.712C301.918 63.8773 302.147 63.4928 308 63.4928C307.603 64.4846 307.278 65.3811 306.881 66.2496C298.481 84.7628 290.078 103.272 281.674 121.778C279.615 126.373 279.621 126.373 273.818 125.644Z" fill="black"/>
<path d="M248.986 103.573V68.4909L242.003 68.1883V63.3695H248.952C248.952 59.7386 248.913 56.3374 248.952 52.9306C249.036 46.5709 253.356 42.3797 259.628 42.5926C263.159 42.7103 265.873 44.2007 267.59 47.798L263.802 50.7061C263.268 50.0695 262.692 49.4686 262.079 48.9075C259.393 46.7558 255.258 48.1903 255.023 51.5298C254.755 55.312 254.962 59.1278 254.962 63.2519H263.55V68.2948H255.023C254.962 69.6396 254.878 70.637 254.878 71.6568C254.878 81.0815 254.878 90.5061 254.878 99.9308C254.878 104.111 254.878 104.116 250.788 103.909C250.181 103.831 249.58 103.719 248.986 103.573Z" fill="black"/>
<path d="M150.631 63.5096C148.063 69.1465 145.646 74.4696 143.212 79.7927C139.804 87.2562 136.425 94.731 132.928 102.15C132.705 102.558 132.398 102.913 132.026 103.192C131.655 103.47 131.227 103.665 130.774 103.763C130.164 103.836 129.095 103.018 128.793 102.346C123.046 89.8057 117.384 77.232 111.71 64.6582C111.559 64.2129 111.347 63.8975 111.347 63.3169C112.746 63.2966 113.865 63.2966 115.079 63.2966C116.942 63.2966 117.496 63.857 118.117 65.3811C121.776 74.2567 125.542 83.0818 129.308 91.9238C129.727 92.9211 130.186 93.8961 130.863 95.3978C131.501 94.0754 131.915 93.2909 132.268 92.4785C135.849 84.1782 139.426 75.8741 142.999 67.5663C144.935 62.9716 144.935 62.9717 150.631 63.5096Z" fill="black"/>
<path d="M204.923 103.702H199.49V63.5488H204.767C204.862 64.8992 204.957 66.2439 205.086 68.1266C208.269 63.885 212.035 61.7389 216.964 62.0079C220.406 62.1984 223.5 63.179 226.241 65.7285L223.136 69.7292C220.143 69.0008 217.507 67.7624 214.922 67.8577C208.98 68.0874 205.002 72.9791 204.934 79.5181C204.862 86.511 204.934 93.5263 204.934 100.497L204.923 103.702Z" fill="black"/>
<path d="M237.09 103.724H231.702V63.4928H237.09V103.724Z" fill="black"/>
<path d="M238.283 50.6109C238.319 51.6383 237.952 52.639 237.259 53.3977C236.566 54.1565 235.604 54.6125 234.578 54.6676C234.068 54.6788 233.561 54.5878 233.086 54.3999C232.611 54.2121 232.179 53.9311 231.814 53.5736C231.449 53.2161 231.159 52.7891 230.961 52.3179C230.763 51.8467 230.662 51.3406 230.662 50.8294C230.647 50.329 230.732 49.8307 230.91 49.363C231.088 48.8952 231.356 48.4671 231.699 48.1032C232.042 47.7392 232.454 47.4465 232.91 47.2417C233.366 47.037 233.858 46.9242 234.357 46.9099C234.857 46.8955 235.355 46.9799 235.822 47.1581C236.289 47.3363 236.716 47.605 237.08 47.9486C237.443 48.2923 237.736 48.7043 237.94 49.1611C238.144 49.6179 238.257 50.1105 238.271 50.6109H238.283Z" fill="black"/>
</g>
<defs>
<linearGradient id="paint0_linear_1183_59975" x1="70.3409" y1="7.47101" x2="70.3409" y2="104.594" gradientUnits="userSpaceOnUse">
<stop offset="0.0987119" stop-color="#15322D"/>
<stop offset="0.519927" stop-color="#16C996"/>
<stop offset="0.944408" stop-color="#EEE95A"/>
</linearGradient>
<clipPath id="clip0_1183_59975">
<rect width="308" height="126" fill="white"/>
</clipPath>
<clipPath id="clip1_1183_59975">
<rect width="111.906" height="112.065" fill="white"/>
</clipPath>
</defs>
</svg>
